<svg width="25" height="25" viewBox="0 0 25 25" fill="none" xmlns="http://www.w3.org/2000/svg">
<path d="M12.5415 16.5601C12.5415 16.6632 12.6212 16.7476 12.7173 16.7476H17.0532C17.1493 16.7476 17.229 16.6632 17.229 16.5601V15.4351C17.229 15.3319 17.1493 15.2476 17.0532 15.2476H12.7173C12.6212 15.2476 12.5415 15.3319 12.5415 15.4351V16.5601ZM7.97354 16.703L12.4735 12.9296C12.5626 12.8546 12.5626 12.7163 12.4735 12.6413L7.97354 8.87021C7.94637 8.84711 7.91315 8.83229 7.87781 8.82751C7.84247 8.82273 7.8065 8.82819 7.77417 8.84325C7.74185 8.8583 7.71452 8.88231 7.69543 8.91243C7.67635 8.94256 7.66631 8.97752 7.6665 9.01318V10.4827C7.6665 10.539 7.68994 10.5905 7.73447 10.6257L10.3079 12.7866L7.73447 14.9476C7.71352 14.9651 7.69661 14.9869 7.68488 15.0116C7.67314 15.0363 7.66688 15.0632 7.6665 15.0905V16.5601C7.6665 16.7194 7.85166 16.8062 7.97354 16.703ZM21.0728 3.41162H3.82275C3.40791 3.41162 3.07275 3.74678 3.07275 4.16162V21.4116C3.07275 21.8265 3.40791 22.1616 3.82275 22.1616H21.0728C21.4876 22.1616 21.8228 21.8265 21.8228 21.4116V4.16162C21.8228 3.74678 21.4876 3.41162 21.0728 3.41162ZM20.1353 20.4741H4.76025V5.09912H20.1353V20.4741Z" fill="#0593FB"/>
</svg>
